<?xml version="1.0" encoding="UTF-8" standalone="no" ?>
<!DOCTYPE svg PUBLIC "-//W3C//DTD SVG 1.1//EN" "http://www.w3.org/Graphics/SVG/1.1/DTD/svg11.dtd">
<svg xmlns="http://www.w3.org/2000/svg" xmlns:xlink="http://www.w3.org/1999/xlink" version="1.1" width="1080" height="1080" viewBox="0 0 1080 1080" xml:space="preserve">
<desc>Created with Fabric.js 5.2.4</desc>
<defs>
</defs>
<rect x="0" y="0" width="100%" height="100%" fill="transparent"></rect>
<g transform="matrix(1 0 0 1 540 540)" id="aa992bbd-432e-4af2-9c56-5c0c845df66b"  >
<rect style="stroke: none; stroke-width: 1; stroke-dasharray: none; stroke-linecap: butt; stroke-dashoffset: 0; stroke-linejoin: miter; stroke-miterlimit: 4; fill: rgb(122,122,122); fill-opacity: 0; fill-rule: nonzero; opacity: 1;" vector-effect="non-scaling-stroke"  x="-540" y="-540" rx="0" ry="0" width="1080" height="1080" />
</g>
<g transform="matrix(1 0 0 1 540 540)" id="3190f76e-d550-4640-9399-e966f8602a6e"  >
</g>
<g transform="matrix(1 0 0 1 2171.57 1438.72)"  >
<g style="" vector-effect="non-scaling-stroke"   >
		<g transform="matrix(0.1 0 0 -0.1 0 0)"  >
<path style="stroke: none; stroke-width: 1; stroke-dasharray: none; stroke-linecap: butt; stroke-dashoffset: 0; stroke-linejoin: miter; stroke-miterlimit: 4; fill: rgb(0,0,0); fill-rule: nonzero; opacity: 1;" vector-effect="non-scaling-stroke"  transform=" translate(-5000.03, -110)" d="M 4643.1 4997.3 C 3792.2000000000003 4915.5 3086.9000000000005 4688.1 2417.4000000000005 4271.6 C 1275.1000000000006 3563.8 467.7000000000005 2403.6000000000004 199.40000000000055 1087.6000000000004 C -250.4 -1117.7 858.6 -3348.5 2885 -4311.9 C 5335.6 -5479.7 8258.9 -4447.299999999999 9419.1 -2009.4999999999995 C 10586.9 441.10000000000036 9554.5 3364.4 7116.700000000001 4524.6 C 6350.1 4890 5414.8 5068.8 4643.1 4997.3 z M 4796.4 4399.3 L 4796.4 4194.900000000001 L 5000.799999999999 4194.900000000001 L 5205.199999999999 4194.900000000001 L 5205.199999999999 4399.3 C 5205.199999999999 4636.900000000001 5166.899999999999 4621.6 5593.5999999999985 4565.400000000001 C 6595.299999999998 4432.500000000001 7492.199999999999 3980.2000000000007 8210.3 3244.3000000000006 C 8961.7 2475.2 9383.3 1555.2 9483 471.7 L 9498.3 310.7 L 9293.9 310.7 L 9089.5 310.7 L 9089.5 106.3 L 9089.5 -98.1 L 9293.9 -98.1 L 9500.9 -98.1 L 9485.5 -231 C 9360.3 -1311.9 9028.1 -2099 8373.9 -2852.8 C 7643.1 -3696 6498.3 -4281.2 5430.2 -4357.9 L 5205.3 -4373.2 L 5205.3 -4176.4 L 5205.3 -3982.2 L 5000.900000000001 -3982.2 L 4796.500000000001 -3982.2 L 4796.500000000001 -4176.4 L 4796.500000000001 -4373.2 L 4584.400000000001 -4357.9 C 3316.9000000000005 -4268.5 2018.8000000000006 -3501.7999999999997 1280.3000000000006 -2408.0999999999995 C 835.6 -1746.3 618.4 -1127.9 516.2 -231 L 500.9 -98.1 L 707.9 -98.1 L 912.3 -98.1 L 912.3 106.30000000000001 L 912.3 310.70000000000005 L 707.8 310.70000000000005 L 503.4 310.70000000000005 L 518.6999999999999 471.70000000000005 C 621 1593.6 1083.5 2564.6 1888.4 3338.9 C 2476.1000000000004 3906.2 3130.3 4276.7 3876.5 4463.3 C 4132 4529.7 4538.4 4596.2 4714.7 4601.3 L 4796.5 4603.900000000001 L 4796.5 4399.3 z" stroke-linecap="round" />
</g>
		<g transform="matrix(0.1 0 0 -0.1 0.09 -336.94)"  >
<path style="stroke: none; stroke-width: 1; stroke-dasharray: none; stroke-linecap: butt; stroke-dashoffset: 0; stroke-linejoin: miter; stroke-miterlimit: 4; fill: rgb(0,0,0); fill-rule: nonzero; opacity: 1;" vector-effect="non-scaling-stroke"  transform=" translate(-5000.95, -3479.45)" d="M 4387.6 3479.4 L 4387.6 2968.3 L 4566.5 2968.3 L 4742.8 2968.3 L 4750.5 3254.5 L 4758.2 3540.7 L 4998.4 3254.5 L 5238.599999999999 2968.3 L 5425.2 2968.3 L 5614.3 2968.3 L 5614.3 3479.4 L 5614.3 3990.5 L 5422.6 3990.5 L 5233.5 3990.5 L 5225.8 3717.1 L 5218.1 3446.2 L 4988.1 3717.1 L 4758.1 3988 L 4574.1 3990.6 L 4387.6 3990.6 L 4387.6 3479.4 z" stroke-linecap="round" />
</g>
		<g transform="matrix(0.1 0 0 -0.1 -0.85 0.15)"  >
<path style="stroke: none; stroke-width: 1; stroke-dasharray: none; stroke-linecap: butt; stroke-dashoffset: 0; stroke-linejoin: miter; stroke-miterlimit: 4; fill: rgb(0,0,0); fill-rule: nonzero; opacity: 1;" vector-effect="non-scaling-stroke"  transform=" translate(-4991.48, -108.57)" d="M 5665.3 1810.8 L 4328.8 548.4 L 3682.3 -1071.6999999999998 C 3324.6000000000004 -1963.4999999999998 3015.3 -2735.2999999999997 2994.9 -2791.5 C 2946.4 -2906.5 2836.5 -3006.2 4548.6 -1388.6 L 5657.6 -340.89999999999986 L 6337.3 1355.9 C 6712.900000000001 2291.2 7014.5 3060.3 7009.400000000001 3065.4 C 7004.3 3070.5 6398.6 2505.8 5665.3 1810.8 z M 5179.7 272.4 C 5269.099999999999 180.39999999999998 5266.599999999999 29.599999999999966 5172 -64.90000000000003 C 5018.7 -220.80000000000004 4758 -113.40000000000003 4758 103.79999999999995 C 4758.1 331.2 5016.2 436 5179.7 272.4 z" stroke-linecap="round" />
</g>
		<g transform="matrix(0.1 0 0 -0.1 -317.09 -9.86)"  >
<path style="stroke: none; stroke-width: 1; stroke-dasharray: none; stroke-linecap: butt; stroke-dashoffset: 0; stroke-linejoin: miter; stroke-miterlimit: 4; fill: rgb(0,0,0); fill-rule: nonzero; opacity: 1;" vector-effect="non-scaling-stroke"  transform=" translate(-1829.14, -208.55)" d="M 1126.9 676.2 C 1142.2 630.2 1346.7 -276.9 1346.7 -292.29999999999995 C 1346.7 -297.4 1415.7 -302.49999999999994 1500 -302.49999999999994 C 1648.2 -302.49999999999994 1650.8 -302.49999999999994 1673.8 -218.19999999999993 C 1786.2 195.80000000000007 1819.5 310.80000000000007 1832.2 310.80000000000007 C 1845 310.80000000000007 1878.2 195.80000000000007 1990.6000000000001 -218.19999999999993 C 2013.6000000000001 -299.99999999999994 2016.1000000000001 -302.49999999999994 2164.4 -302.49999999999994 C 2284.5 -302.49999999999994 2317.7000000000003 -294.79999999999995 2328 -256.49999999999994 C 2335.7 -233.49999999999994 2381.7 -23.999999999999943 2432.8 208.60000000000008 C 2481.4 441.1000000000001 2527.4 650.7 2532.5 676.2 C 2542.7 714.5 2522.3 719.6 2397.1 719.6 L 2248.9 719.6 L 2202.9 461.5 C 2177.3 321 2149.2000000000003 200.89999999999998 2139 195.7 C 2131.3 190.6 2103.2 262.1 2077.7 356.7 C 2054.7 451.29999999999995 2021.4999999999998 571.4 2008.6999999999998 625 L 1983.1 719.6 L 1834.8999999999999 719.6 L 1686.6999999999998 719.6 L 1615 451.3 C 1574.1 303.1 1535.8 183 1528.1 183 C 1517.8999999999999 183 1489.8 303.1 1464.1999999999998 451.3 L 1415.6 719.6 L 1264.8 719.6 C 1132.1 719.6 1114.2 714.5 1126.9 676.2 z" stroke-linecap="round" />
</g>
		<g transform="matrix(0.1 0 0 -0.1 337.39 0.37)"  >
<path style="stroke: none; stroke-width: 1; stroke-dasharray: none; stroke-linecap: butt; stroke-dashoffset: 0; stroke-linejoin: miter; stroke-miterlimit: 4; fill: rgb(0,0,0); fill-rule: nonzero; opacity: 1;" vector-effect="non-scaling-stroke"  transform=" translate(-8373.9, -106.3)" d="M 7862.9 106.3 L 7862.9 -507 L 8374 -507 L 8885 -507 L 8885 -366.5 L 8885 -226 L 8565.6 -226 L 8246.2 -226 L 8246.2 -111 L 8246.2 4 L 8565.6 4 L 8885 4 L 8885 131.8 L 8885 259.6 L 8565.6 259.6 L 8246.2 259.6 L 8246.2 361.8 L 8246.2 464 L 8565.6 464 L 8885 464 L 8885 591.8 L 8885 719.5999999999999 L 8373.9 719.5999999999999 L 7862.799999999999 719.5999999999999 L 7862.799999999999 106.3 z" stroke-linecap="round" />
</g>
		<g transform="matrix(0.1 0 0 -0.1 -9.05 328.03)"  >
<path style="stroke: none; stroke-width: 1; stroke-dasharray: none; stroke-linecap: butt; stroke-dashoffset: 0; stroke-linejoin: miter; stroke-miterlimit: 4; fill: rgb(0,0,0); fill-rule: nonzero; opacity: 1;" vector-effect="non-scaling-stroke"  transform=" translate(-4909.53, 3170.34)" d="M 4753 -2576.8 C 4694.2 -2589.6000000000004 4620.1 -2612.6000000000004 4592 -2627.9 C 4515.3 -2668.8 4438.7 -2806.8 4438.7 -2901.3 C 4438.7 -3085.3 4535.8 -3177.3 4809.2 -3253.9 C 5069.8 -3328 5138.9 -3407.2000000000003 5031.5 -3504.3 C 4957.4 -3570.8 4834.7 -3560.5 4773.4 -3481.3 C 4742.7 -3443 4719.7 -3399.6000000000004 4719.7 -3384.2000000000003 C 4719.7 -3366.3 4668.599999999999 -3358.6000000000004 4566.4 -3363.8 C 4400.299999999999 -3374 4392.599999999999 -3386.8 4441.2 -3514.6000000000004 C 4510.2 -3701.1000000000004 4719.7 -3798.2000000000003 4993.099999999999 -3770.1000000000004 C 5240.999999999999 -3744.5000000000005 5384.099999999999 -3616.8 5401.999999999999 -3402.1000000000004 C 5419.899999999999 -3182.4000000000005 5315.099999999999 -3080.1000000000004 4977.799999999999 -2983.0000000000005 C 4780.999999999999 -2926.8000000000006 4719.699999999999 -2880.8000000000006 4770.799999999999 -2822.0000000000005 C 4837.299999999999 -2740.2000000000003 5051.9 -2799.0000000000005 5051.9 -2898.7000000000003 C 5051.9 -2911.5000000000005 5126 -2919.1000000000004 5215.5 -2914.0000000000005 L 5379 -2903.8000000000006 L 5356 -2827.100000000001 C 5330.4 -2735.100000000001 5241 -2632.900000000001 5166.9 -2602.2000000000007 C 5075 -2569.1 4862.9 -2553.8 4753 -2576.8 z" stroke-linecap="round" />
</g>
</g>
</g>
<g transform="matrix(0.1 0 0 -0.1 1865.09 1962.73)"  >
<path style="stroke: rgb(0,0,0); stroke-opacity: 0; stroke-width: 0; stroke-dasharray: none; stroke-linecap: butt; stroke-dashoffset: 0; stroke-linejoin: miter; stroke-miterlimit: 4; fill: rgb(255,255,255); fill-rule: nonzero; opacity: 1;" vector-effect="non-scaling-stroke"  transform=" translate(-5000.03, -110)" d="M 4643.1 4997.3 C 3792.2000000000003 4915.5 3086.9000000000005 4688.1 2417.4000000000005 4271.6 C 1275.1000000000006 3563.8 467.7000000000005 2403.6000000000004 199.40000000000055 1087.6000000000004 C -250.4 -1117.7 858.6 -3348.5 2885 -4311.9 C 5335.6 -5479.7 8258.9 -4447.299999999999 9419.1 -2009.4999999999995 C 10586.9 441.10000000000036 9554.5 3364.4 7116.700000000001 4524.6 C 6350.1 4890 5414.8 5068.8 4643.1 4997.3 z M 4796.4 4399.3 L 4796.4 4194.900000000001 L 5000.799999999999 4194.900000000001 L 5205.199999999999 4194.900000000001 L 5205.199999999999 4399.3 C 5205.199999999999 4636.900000000001 5166.899999999999 4621.6 5593.5999999999985 4565.400000000001 C 6595.299999999998 4432.500000000001 7492.199999999999 3980.2000000000007 8210.3 3244.3000000000006 C 8961.7 2475.2 9383.3 1555.2 9483 471.7 L 9498.3 310.7 L 9293.9 310.7 L 9089.5 310.7 L 9089.5 106.3 L 9089.5 -98.1 L 9293.9 -98.1 L 9500.9 -98.1 L 9485.5 -231 C 9360.3 -1311.9 9028.1 -2099 8373.9 -2852.8 C 7643.1 -3696 6498.3 -4281.2 5430.2 -4357.9 L 5205.3 -4373.2 L 5205.3 -4176.4 L 5205.3 -3982.2 L 5000.900000000001 -3982.2 L 4796.500000000001 -3982.2 L 4796.500000000001 -4176.4 L 4796.500000000001 -4373.2 L 4584.400000000001 -4357.9 C 3316.9000000000005 -4268.5 2018.8000000000006 -3501.7999999999997 1280.3000000000006 -2408.0999999999995 C 835.6 -1746.3 618.4 -1127.9 516.2 -231 L 500.9 -98.1 L 707.9 -98.1 L 912.3 -98.1 L 912.3 106.30000000000001 L 912.3 310.70000000000005 L 707.8 310.70000000000005 L 503.4 310.70000000000005 L 518.6999999999999 471.70000000000005 C 621 1593.6 1083.5 2564.6 1888.4 3338.9 C 2476.1000000000004 3906.2 3130.3 4276.7 3876.5 4463.3 C 4132 4529.7 4538.4 4596.2 4714.7 4601.3 L 4796.5 4603.900000000001 L 4796.5 4399.3 z" stroke-linecap="round" />
</g>
<g transform="matrix(0.08 0 0 -0.08 1342.46 222.42)"  >
<path style="stroke: rgb(255,255,255); stroke-width: 1; stroke-dasharray: none; stroke-linecap: butt; stroke-dashoffset: 0; stroke-linejoin: miter; stroke-miterlimit: 4; fill: rgb(255,255,255); fill-rule: nonzero; opacity: 1;" vector-effect="non-scaling-stroke"  transform=" translate(-5000.95, -3479.45)" d="M 4387.6 3479.4 L 4387.6 2968.3 L 4566.5 2968.3 L 4742.8 2968.3 L 4750.5 3254.5 L 4758.2 3540.7 L 4998.4 3254.5 L 5238.599999999999 2968.3 L 5425.2 2968.3 L 5614.3 2968.3 L 5614.3 3479.4 L 5614.3 3990.5 L 5422.6 3990.5 L 5233.5 3990.5 L 5225.8 3717.1 L 5218.1 3446.2 L 4988.1 3717.1 L 4758.1 3988 L 4574.1 3990.6 L 4387.6 3990.6 L 4387.6 3479.4 z" stroke-linecap="round" />
</g>
<g transform="matrix(0.07 -0.04 -0.04 -0.07 540 540)"  >
<path style="stroke: rgb(255,255,255); stroke-width: 0; stroke-dasharray: none; stroke-linecap: butt; stroke-dashoffset: 0; stroke-linejoin: miter; stroke-miterlimit: 4; fill: rgb(255,255,255); fill-rule: nonzero; opacity: 1;" vector-effect="non-scaling-stroke"  transform=" translate(-4991.48, -108.57)" d="M 5665.3 1810.8 L 4328.8 548.4 L 3682.3 -1071.6999999999998 C 3324.6000000000004 -1963.4999999999998 3015.3 -2735.2999999999997 2994.9 -2791.5 C 2946.4 -2906.5 2836.5 -3006.2 4548.6 -1388.6 L 5657.6 -340.89999999999986 L 6337.3 1355.9 C 6712.900000000001 2291.2 7014.5 3060.3 7009.400000000001 3065.4 C 7004.3 3070.5 6398.6 2505.8 5665.3 1810.8 z M 5179.7 272.4 C 5269.099999999999 180.39999999999998 5266.599999999999 29.599999999999966 5172 -64.90000000000003 C 5018.7 -220.80000000000004 4758 -113.40000000000003 4758 103.79999999999995 C 4758.1 331.2 5016.2 436 5179.7 272.4 z" stroke-linecap="round" />
</g>
<g transform="matrix(0.08 0 0 -0.08 1544.78 496.14)"  >
<path style="stroke: rgb(255,255,255); stroke-width: 1; stroke-dasharray: none; stroke-linecap: butt; stroke-dashoffset: 0; stroke-linejoin: miter; stroke-miterlimit: 4; fill: rgb(255,255,255); fill-rule: nonzero; opacity: 1;" vector-effect="non-scaling-stroke"  transform=" translate(-1829.14, -208.55)" d="M 1126.9 676.2 C 1142.2 630.2 1346.7 -276.9 1346.7 -292.29999999999995 C 1346.7 -297.4 1415.7 -302.49999999999994 1500 -302.49999999999994 C 1648.2 -302.49999999999994 1650.8 -302.49999999999994 1673.8 -218.19999999999993 C 1786.2 195.80000000000007 1819.5 310.80000000000007 1832.2 310.80000000000007 C 1845 310.80000000000007 1878.2 195.80000000000007 1990.6000000000001 -218.19999999999993 C 2013.6000000000001 -299.99999999999994 2016.1000000000001 -302.49999999999994 2164.4 -302.49999999999994 C 2284.5 -302.49999999999994 2317.7000000000003 -294.79999999999995 2328 -256.49999999999994 C 2335.7 -233.49999999999994 2381.7 -23.999999999999943 2432.8 208.60000000000008 C 2481.4 441.1000000000001 2527.4 650.7 2532.5 676.2 C 2542.7 714.5 2522.3 719.6 2397.1 719.6 L 2248.9 719.6 L 2202.9 461.5 C 2177.3 321 2149.2000000000003 200.89999999999998 2139 195.7 C 2131.3 190.6 2103.2 262.1 2077.7 356.7 C 2054.7 451.29999999999995 2021.4999999999998 571.4 2008.6999999999998 625 L 1983.1 719.6 L 1834.8999999999999 719.6 L 1686.6999999999998 719.6 L 1615 451.3 C 1574.1 303.1 1535.8 183 1528.1 183 C 1517.8999999999999 183 1489.8 303.1 1464.1999999999998 451.3 L 1415.6 719.6 L 1264.8 719.6 C 1132.1 719.6 1114.2 714.5 1126.9 676.2 z" stroke-linecap="round" />
</g>
<g transform="matrix(0.07 0 0 -0.07 1273.96 540)"  >
<path style="stroke: rgb(255,255,255); stroke-width: 1; stroke-dasharray: none; stroke-linecap: butt; stroke-dashoffset: 0; stroke-linejoin: miter; stroke-miterlimit: 4; fill: rgb(255,255,255); fill-rule: nonzero; opacity: 1;" vector-effect="non-scaling-stroke"  transform=" translate(-8373.9, -106.3)" d="M 7862.9 106.3 L 7862.9 -507 L 8374 -507 L 8885 -507 L 8885 -366.5 L 8885 -226 L 8565.6 -226 L 8246.2 -226 L 8246.2 -111 L 8246.2 4 L 8565.6 4 L 8885 4 L 8885 131.8 L 8885 259.6 L 8565.6 259.6 L 8246.2 259.6 L 8246.2 361.8 L 8246.2 464 L 8565.6 464 L 8885 464 L 8885 591.8 L 8885 719.5999999999999 L 8373.9 719.5999999999999 L 7862.799999999999 719.5999999999999 L 7862.799999999999 106.3 z" stroke-linecap="round" />
</g>
<g transform="matrix(0.08 0 0 -0.08 1450.57 1258.71)"  >
<path style="stroke: rgb(255,255,255); stroke-width: 1; stroke-dasharray: none; stroke-linecap: butt; stroke-dashoffset: 0; stroke-linejoin: miter; stroke-miterlimit: 4; fill: rgb(255,255,255); fill-rule: nonzero; opacity: 1;" vector-effect="non-scaling-stroke"  transform=" translate(-4909.53, 3170.34)" d="M 4753 -2576.8 C 4694.2 -2589.6000000000004 4620.1 -2612.6000000000004 4592 -2627.9 C 4515.3 -2668.8 4438.7 -2806.8 4438.7 -2901.3 C 4438.7 -3085.3 4535.8 -3177.3 4809.2 -3253.9 C 5069.8 -3328 5138.9 -3407.2000000000003 5031.5 -3504.3 C 4957.4 -3570.8 4834.7 -3560.5 4773.4 -3481.3 C 4742.7 -3443 4719.7 -3399.6000000000004 4719.7 -3384.2000000000003 C 4719.7 -3366.3 4668.599999999999 -3358.6000000000004 4566.4 -3363.8 C 4400.299999999999 -3374 4392.599999999999 -3386.8 4441.2 -3514.6000000000004 C 4510.2 -3701.1000000000004 4719.7 -3798.2000000000003 4993.099999999999 -3770.1000000000004 C 5240.999999999999 -3744.5000000000005 5384.099999999999 -3616.8 5401.999999999999 -3402.1000000000004 C 5419.899999999999 -3182.4000000000005 5315.099999999999 -3080.1000000000004 4977.799999999999 -2983.0000000000005 C 4780.999999999999 -2926.8000000000006 4719.699999999999 -2880.8000000000006 4770.799999999999 -2822.0000000000005 C 4837.299999999999 -2740.2000000000003 5051.9 -2799.0000000000005 5051.9 -2898.7000000000003 C 5051.9 -2911.5000000000005 5126 -2919.1000000000004 5215.5 -2914.0000000000005 L 5379 -2903.8000000000006 L 5356 -2827.100000000001 C 5330.4 -2735.100000000001 5241 -2632.900000000001 5166.9 -2602.2000000000007 C 5075 -2569.1 4862.9 -2553.8 4753 -2576.8 z" stroke-linecap="round" />
</g>
</svg>