<?xml version="1.0" standalone="no"?>
<!DOCTYPE svg PUBLIC "-//W3C//DTD SVG 20010904//EN"
 "http://www.w3.org/TR/2001/REC-SVG-20010904/DTD/svg10.dtd">
<svg version="1.0" xmlns="http://www.w3.org/2000/svg"
 width="100.000000pt" height="100.000000pt" viewBox="0 0 100.000000 100.000000"
 preserveAspectRatio="xMidYMid meet">

<g transform="translate(0.000000,100.000000) scale(0.100000,-0.100000)"
fill="#000000" stroke="none">
<path d="M623 894 c-20 -20 -24 -32 -21 -57 8 -50 2 -57 -40 -45 -55 15 -152
4 -214 -24 -77 -36 -123 -80 -160 -156 -30 -60 -33 -75 -32 -152 1 -99 21
-154 81 -221 167 -185 456 -144 562 81 22 46 26 68 25 140 -1 105 -22 158 -93
233 -51 54 -53 65 -13 86 31 16 44 54 31 88 -22 57 -82 71 -126 27z m88 5 c28
-15 41 -54 27 -83 -15 -35 -29 -37 -81 -13 -52 25 -59 48 -25 84 23 25 48 29
79 12z m-56 -101 c24 -11 32 -28 19 -41 -8 -8 -64 20 -64 32 0 7 10 21 16 21
2 0 15 -5 29 -12z m-34 -50 c71 -32 124 -86 158 -157 22 -46 26 -70 25 -136
-1 -128 -53 -215 -166 -275 -56 -31 -71 -34 -143 -34 -99 -1 -162 25 -228 92
-205 209 -56 553 233 539 44 -2 83 -11 121 -29z"/>
<path d="M418 736 c-119 -33 -208 -141 -208 -252 0 -32 2 -34 33 -33 30 2 30
2 5 6 -24 4 -28 9 -28 36 0 46 41 126 86 169 41 39 86 61 146 72 36 6 37 6 41
-26 l4 -33 1 33 c2 30 4 32 30 26 64 -14 96 -28 128 -56 19 -17 37 -28 40 -25
8 7 -56 54 -97 71 -53 22 -128 27 -181 12z"/>
<path d="M745 570 c4 -14 9 -44 12 -67 5 -40 4 -42 -23 -46 l-29 -4 28 -2 c31
-1 34 -22 14 -78 -33 -88 -119 -161 -209 -177 -34 -6 -37 -5 -41 21 l-4 28 -2
-29 c-1 -28 -2 -28 -43 -22 -92 15 -181 87 -213 173 -8 23 -14 30 -14 18 -1
-24 30 -79 68 -118 78 -84 224 -108 327 -55 63 33 118 95 138 156 20 56 19
145 0 192 -8 19 -12 24 -9 10z"/>
</g>
</svg>
