<svg class="svg-icon" style="width: 1.03125em; height: 1em;vertical-align: middle;fill: currentColor;overflow: hidden;" viewBox="0 0 1056 1024" version="1.1" xmlns="http://www.w3.org/2000/svg"><path d="M490.788571 721.188571l37.302858 22.674286 37.302857-22.674286c11.702857-6.582857 279.405714-170.422857 279.405714-403.748571a316.708571 316.708571 0 0 0-634.148571 0c0.731429 233.325714 268.434286 396.434286 280.137142 403.748571zM528.091429 146.285714a171.154286 171.154286 0 0 1 170.422857 170.422857c0 103.131429-101.668571 201.142857-170.422857 252.342858-59.977143-44.617143-171.154286-146.285714-171.154286-252.342858A171.154286 171.154286 0 0 1 528.091429 146.285714z" fill="#272536" /><path d="M528.091429 316.708571m-97.28 0a97.28 97.28 0 1 0 194.56 0 97.28 97.28 0 1 0-194.56 0Z" fill="#272536" /><path d="M953.782857 512h-133.12v146.285714h13.165714l43.885715 219.428572H178.468571l43.885715-219.428572h13.165714V512H102.4L0 1024h1056.182857l-102.4-512z" fill="#272536" /></svg>