<?xml version="1.0" encoding="UTF-8" standalone="no" ?>
<!DOCTYPE svg PUBLIC "-//W3C//DTD SVG 1.1//EN" "http://www.w3.org/Graphics/SVG/1.1/DTD/svg11.dtd">
<svg xmlns="http://www.w3.org/2000/svg" xmlns:xlink="http://www.w3.org/1999/xlink" version="1.1" width="1080" height="1080" viewBox="0 0 1080 1080" xml:space="preserve">
<desc>Created with Fabric.js 5.2.4</desc>
<defs>
</defs>
<rect x="0" y="0" width="100%" height="100%" fill="transparent"></rect>
<g transform="matrix(1 0 0 1 540 540)" id="aa992bbd-432e-4af2-9c56-5c0c845df66b"  >
<rect style="stroke: none; stroke-width: 1; stroke-dasharray: none; stroke-linecap: butt; stroke-dashoffset: 0; stroke-linejoin: miter; stroke-miterlimit: 4; fill: rgb(255,255,255); fill-opacity: 0; fill-rule: nonzero; opacity: 1;" vector-effect="non-scaling-stroke"  x="-540" y="-540" rx="0" ry="0" width="1080" height="1080" />
</g>
<g transform="matrix(1 0 0 1 540 540)" id="3190f76e-d550-4640-9399-e966f8602a6e"  >
</g>
<g transform="matrix(0.07 -0.04 -0.04 -0.07 540 540)"  >
<path style="stroke: rgb(255,255,255); stroke-width: 0; stroke-dasharray: none; stroke-linecap: butt; stroke-dashoffset: 0; stroke-linejoin: miter; stroke-miterlimit: 4; fill: rgb(255,255,255); fill-rule: nonzero; opacity: 1;" vector-effect="non-scaling-stroke"  transform=" translate(-4991.48, -108.57)" d="M 5665.3 1810.8 L 4328.8 548.4 L 3682.3 -1071.6999999999998 C 3324.6000000000004 -1963.4999999999998 3015.3 -2735.2999999999997 2994.9 -2791.5 C 2946.4 -2906.5 2836.5 -3006.2 4548.6 -1388.6 L 5657.6 -340.89999999999986 L 6337.3 1355.9 C 6712.900000000001 2291.2 7014.5 3060.3 7009.400000000001 3065.4 C 7004.3 3070.5 6398.6 2505.8 5665.3 1810.8 z M 5179.7 272.4 C 5269.099999999999 180.39999999999998 5266.599999999999 29.599999999999966 5172 -64.90000000000003 C 5018.7 -220.80000000000004 4758 -113.40000000000003 4758 103.79999999999995 C 4758.1 331.2 5016.2 436 5179.7 272.4 z" stroke-linecap="round" />
</g>
</svg>