<?xml version="1.0" encoding="UTF-8"?>
<svg width="700pt" height="700pt" version="1.1" viewBox="0 0 700 700" xmlns="http://www.w3.org/2000/svg">
 <path d="m354.2 26.246c-43.906 0-87.367 11.73-125.99 34.008-58.309 33.648-100.89 89.062-118.31 154.07-17.426 65.004-8.2891 134.27 25.379 192.55 33.664 58.281 89.113 100.83 154.15 118.25 65.035 17.418 134.34 8.2852 192.65-25.363 56.16-32.445 97.785-85.152 116.3-147.3h0.003906c1.1562-3.875-0.49219-8.0391-3.9883-10.07-3.5-2.0312-7.9336-1.4023-10.723 1.5234-11.559 12.109-24.789 22.52-39.273 30.914-40.609 23.43-88.863 29.785-134.16 17.652-45.301-12.129-83.914-41.746-107.36-82.34-23.449-40.59-29.809-88.801-17.672-134.07 12.137-45.273 41.777-83.875 82.391-107.31 14.5-8.3633 30.102-14.617 46.363-18.594l0.003906 0.007813c3.9375-0.94141 6.7148-4.4648 6.7148-8.5117 0-4.0508-2.7773-7.5703-6.7148-8.5117-19.715-4.6914-39.758-6.9766-59.711-6.9023zm116.11 94.949v0.12109c-0.66406-0.078125-1.3359-0.078125-2 0-2.9883 0.51172-5.4961 2.5352-6.6289 5.3477-13.363 33.07-39.383 59.41-72.289 73.18-3.2578 1.3633-5.375 4.5508-5.3711 8.0781 0.003907 3.5312 2.1289 6.7148 5.3867 8.0703 32.922 13.773 58.945 40.129 72.309 73.215 1.3359 3.3008 4.543 5.4609 8.1094 5.4609 3.5625 0 6.7695-2.1602 8.1055-5.4609 13.383-33.074 39.445-59.414 72.375-73.16l0.003906-0.003906c3.2578-1.3594 5.3789-4.543 5.3789-8.0742s-2.1211-6.7148-5.3789-8.0742c-32.957-13.758-59.023-40.125-72.395-73.23-1.2617-3.1406-4.2266-5.2695-7.6055-5.4688z" fill-rule="evenodd"/>
</svg>
